<svg
  xmlns="http://www.w3.org/2000/svg"
  width="320.000000pt"
  height="320.000000pt"
  viewBox="0 0 320.000000 320.000000"
>
  <g
    transform="translate(0.000000,320.000000) scale(0.100000,-0.100000)"
    fill="#000000"
    stroke="none"
  >
    <path d="M1020 1725 l0 -685 175 0 175 0 0 291 0 290 51 -3 51 -3 202 -285
    201 -285 63 -3 62 -3 0 -124 0 -125 155 0 155 0 0 270 0 270 -119 0 -118 0
    -167 221 c-149 196 -166 223 -153 238 8 9 90 108 182 221 93 113 198 241 235
    285 36 44 72 88 79 98 13 16 3 17 -176 17 l-189 0 -130 -167 c-72 -93 -166
    -214 -210 -270 l-79 -103 -47 0 -48 0 0 270 0 270 -175 0 -175 0 0 -685z" />
    <path d="M1020 880 l0 -80 425 0 425 0 0 80 0 80 -425 0 -425 0 0 -80z" fill="#017EFF" />
  </g>
</svg>
